General
Complete name                    : Stigmata.mkv
Format                           : Matroska
File size                        : 2.36 GiB
Duration                         : 1h 42mn
Overall bit rate                 : 3 306 Kbps


Video
ID                               : 1
Format                           : AVC
Duration                         : 1h 42mn
Bit rate                         : 1 337 Kbps
Width                            : 718 pixels
Height                           : 432 pixels
Display aspect ratio             : 2.35:1
Frame rate                       : 25.000 fps
Resolution                       : 8 bits
Colorimetry                      : 4:2:0
Scan type                        : Progressive
Bits/(Pixel*Frame)               : 0.172
Stream size                      : 979 MiB (40%)
Writing library                  : x264 core 79


Audio #1
ID                               : 2
Format                           : AC-3
Format/Info                      : Audio Coding 3
Codec ID                         : A_AC3
Duration                         : 1h 42mn
Bit rate mode                    : Constant
Bit rate                         : 448 Kbps
Channel(s)                       : 6 channels
Channel positions                : Front: L C R, Surround: L R, LFE
Sampling rate                    : 48.0 KHz
Stream size                      : 328 MiB (14%)
Language                         : English

Audio #2
ID                               : 3
Format                           : AC-3
Format/Info                      : Audio Coding 3
Codec ID                         : A_AC3
Duration                         : 1h 42mn
Bit rate mode                    : Constant
Bit rate                         : 448 Kbps
Channel(s)                       : 6 channels
Channel positions                : Front: L C R, Surround: L R, LFE
Sampling rate                    : 48.0 KHz
Stream size                      : 328 MiB (14%)
Language                         : German

Audio #3
ID                               : 4
Format                           : AC-3
Format/Info                      : Audio Coding 3
Codec ID                         : A_AC3
Duration                         : 1h 42mn
Bit rate mode                    : Constant
Bit rate                         : 448 Kbps
Channel(s)                       : 6 channels
Channel positions                : Front: L C R, Surround: L R, LFE
Sampling rate                    : 48.0 KHz
Stream size                      : 328 MiB (14%)
Language                         : French

Audio #4
ID                               : 5
Format                           : AC-3
Format/Info                      : Audio Coding 3
Codec ID                         : A_AC3
Duration                         : 1h 42mn
Bit rate mode                    : Constant
Bit rate                         : 448 Kbps
Channel(s)                       : 6 channels
Channel positions                : Front: L C R, Surround: L R, LFE
Sampling rate                    : 48.0 KHz
Stream size                      : 328 MiB (14%)
Language                         : Spanish

Audio #5
ID                               : Directors Commentary!
Format                           : MPEG Audio
Format version                   : Version 1
Format profile                   : Layer 3
Mode                             : Joint stereo / MS Stereo
Codec ID                         : A_MPEG/L3
Codec ID/Hint                    : MP3
Duration                         : 1h 42mn
Bit rate mode                    : Constant
Bit rate                         : 112 Kbps
Channel(s)                       : 2 channels
Sampling rate                    : 48.0 KHz
Stream size                      : 82.0 MiB (3%)
Writing library                  : LAME3.98
Language                         : English

Text #1
Language                         : English

Text #2
Language                         : German

Text #3
Language                         : French

Text #4
Language                         : Spanish

Text #5
Language                         : English

Text #6
Language                         : German

Text #7
Language                         : Danish

Text #8
Language                         : Dutch

Text #9
Language                         : Finnish

Text #10
Language                         : Greek

Text #11
Language                         : Hungarian

Text #12
Language                         : Norwegian

Text #13
Language                         : Polish

Text #14
Language                         : Portuguese

Text #15
Language                         : Swedish



